<svg id="ej6y2z8naama1" xmlns="http://www.w3.org/2000/svg" xmlns:xlink="http://www.w3.org/1999/xlink" viewBox="0 0 512 512" shape-rendering="geometricPrecision" text-rendering="geometricPrecision" width="512" height="512"><style><![CDATA[#ej6y2z8naama6 {animation: ej6y2z8naama6_s_do 4000ms linear infinite normal forwards}@keyframes ej6y2z8naama6_s_do { 0% {stroke-dashoffset: 0} 49.875312% {stroke-dashoffset: -2989.160000} 50.124688% {stroke-dashoffset: 2989.160000} 100% {stroke-dashoffset: 0} }]]></style><g id="ej6y2z8naama2"><g id="ej6y2z8naama3" transform="matrix(1.94569000000000 0 0 1.94569000000000 -910.35100000000000 -220.69399999999999)"><circle id="ej6y2z8naama4" r="131.600000" transform="matrix(1 0 0 1 599.50000000000000 245)" clip-rule="evenodd" fill="rgb(70,100,243)" fill-rule="evenodd" stroke="none" stroke-width="1"/></g><g id="ej6y2z8naama5" transform="matrix(0.33124600000000 0.03182200000000 -0.03182200000000 0.33124600000000 896.03899999999999 112.78200000000000)"><path id="ej6y2z8naama6" d="M-2010.400000,272.500000C-2010.400000,272.500000,-1962.400000,197.400000,-1892.500000,211.400000C-1815.400000,226.900000,-1758.700000,316.300000,-1852.300000,399.500000C-1926,465,-2375.800000,739.600000,-2375.800000,739.600000C-2375.800000,739.600000,-2442,771.700000,-2431.800000,828.100000C-2423.600000,873.200000,-2377.400000,880.200000,-2331.100000,870.200000C-2258.900000,854.600000,-1345.600000,677.600000,-1345.600000,677.600000C-1345.600000,677.600000,-1261.800000,657.400000,-1279.200000,603.100000C-1294.900000,554,-1349.600000,552.100000,-1412.100000,539.800000C-1474.600000,527.500000,-1867.900000,436.600000,-1867.900000,436.600000" fill="none" stroke="rgb(243,243,243)" stroke-width="70" stroke-linecap="round" stroke-linejoin="round" stroke-miterlimit="2.415300" stroke-dasharray="2989.160000"/></g></g></svg>