<svg xmlns="http://www.w3.org/2000/svg" viewBox="0 0 224.18 154.77"><defs><style>.cls-1{fill:#f3f3f3;}</style></defs><title>broke_hanger</title><g id="Layer_2" data-name="Layer 2"><g id="Layer_1-2" data-name="Layer 1"><path class="cls-1" d="M190.46,154.77a27.8,27.8,0,0,1-3.61-.22l-.22,0c-1.57-.28-156.52-28.44-168.79-30.41-5-.8-11.74-2.85-15.43-8.12A13.71,13.71,0,0,1,.29,105.27C2.31,94.88,12.84,91.2,19,90.63c4.92-.88,88.55-15.93,103.38-21.43,6.74-2.5,10.58-6.33,11.09-11.07.49-4.55-2.24-9.57-6.79-12.48-7.21-4.61-16.84,2.19-16.94,2.26a5,5,0,0,1-5.88-8.09c.62-.45,15.21-10.9,28.21-2.59,7.79,5,12.24,13.61,11.34,22-.54,5-3.53,14.18-17.55,19.39-16,6-101.69,21.29-105.32,21.94a3.93,3.93,0,0,1-.48.06c-.07,0-8.79.86-9.9,6.59a3.67,3.67,0,0,0,.5,3.08c1.27,1.81,4.56,3.3,8.81,4,12.3,2,160.78,29,168.86,30.42,2.49.31,6.91.08,8.67-1.38a2.15,2.15,0,0,0,.78-1.73c.25-4.11-3-6.5-11-11.35-1.29-.78-2.62-1.59-4-2.44C173,121.51,158,93.5,155.05,88a5,5,0,0,1,8.86-4.65c6.26,12,18.38,32.28,24.24,36,1.29.82,2.57,1.59,3.8,2.35,8.07,4.89,16.41,9.95,15.76,20.5a12.09,12.09,0,0,1-4.42,8.85C199.44,154.16,194,154.77,190.46,154.77Z"/><path class="cls-1" d="M171.73,55.67a4.92,4.92,0,0,1-2.59-.73,5,5,0,0,1-1.67-6.87l13.74-22.61a5,5,0,1,1,8.55,5.19L176,53.27A5,5,0,0,1,171.73,55.67Z"/><path class="cls-1" d="M155.77,38.82a5,5,0,0,1-4.91-4.09L145.54,5.91a5,5,0,1,1,9.83-1.82l5.32,28.82a5,5,0,0,1-4,5.83A4.67,4.67,0,0,1,155.77,38.82Z"/><path class="cls-1" d="M219.19,77.84a5,5,0,0,1-.67,0l-36.36-4.88A5,5,0,1,1,183.49,63l36.36,4.87a5,5,0,0,1-.66,10Z"/></g></g></svg>