<svg id="egq5hit35vgg1" xmlns="http://www.w3.org/2000/svg" xmlns:xlink="http://www.w3.org/1999/xlink" viewBox="0 0 62 62" shape-rendering="geometricPrecision" text-rendering="geometricPrecision" width="62" height="62"><style><![CDATA[#egq5hit35vgg1{pointer-events: all}#egq5hit35vgg1 * {animation-play-state: paused !important}#egq5hit35vgg1:hover * {animation-play-state: running !important}#egq5hit35vgg4 {animation: egq5hit35vgg4_s_do 1010ms linear 1 normal forwards}@keyframes egq5hit35vgg4_s_do { 0% {stroke-dashoffset: 0;animation-timing-function: cubic-bezier(0.420000,0,1,1)} 49.504950% {stroke-dashoffset: -361.960000;animation-timing-function: cubic-bezier(0,0,0.580000,1)} 50.495050% {stroke-dashoffset: 361.960000;animation-timing-function: cubic-bezier(0.420000,0,1,1)} 99.009901% {stroke-dashoffset: 0} 100% {stroke-dashoffset: 0} }]]></style><g id="egq5hit35vgg2" transform="matrix(1 0 0 1 -929 -229)" clip-rule="evenodd"><g id="egq5hit35vgg3" transform="matrix(0.33124600000000 0.03182200000000 -0.03182200000000 0.33124600000000 896.03899999999999 112.78200000000000)" clip-rule="evenodd"><path id="egq5hit35vgg4" d="M217.029000,380.838000C217.029000,380.838000,222.845000,371.742000,231.305000,373.441000C240.641000,375.316000,247.507000,386.144000,236.177000,396.214000C227.249000,404.150000,172.788000,437.395000,172.788000,437.395000C172.788000,437.395000,164.769000,441.283000,166.002000,448.107000C166.989000,453.574000,172.587000,454.416000,178.197000,453.204000C186.938000,451.317000,297.535000,429.886000,297.535000,429.886000C297.535000,429.886000,307.681000,427.443000,305.578000,420.864000C303.678000,414.922000,297.049000,414.689000,289.482000,413.203000C281.916000,411.717000,234.291000,400.711000,234.291000,400.711000" clip-rule="evenodd" fill="none" fill-rule="evenodd" stroke="rgb(243,243,243)" stroke-width="9.020000" stroke-linecap="round" stroke-linejoin="round" stroke-miterlimit="1.500000" stroke-dasharray="361.960000"/></g></g></svg>