<svg width="62" height="62" viewBox="0 0 62 62" fill="none" xmlns="http://www.w3.org/2000/svg">
<circle cx="31" cy="31" r="31" fill="#4664F3"/>
<path d="M50.5356 35.2594L33.7619 25.6562C32.8295 25.1223 31.7106 24.854 30.5584 24.8804C30.7678 24.1657 31.3232 23.4653 31.8691 22.7768C32.1815 22.3826 32.4765 22.01 32.7112 21.6383C33.6514 20.3645 33.9776 18.7153 33.606 17.1124C32.9509 14.2823 30.3333 12.4845 27.6913 13.1436C26.9094 13.3379 26.1824 13.7451 25.6059 14.3052C24.2934 15.4558 23.6411 17.2392 23.8606 19.0755C23.9453 19.7816 24.5432 20.2944 25.1832 20.2205L25.2335 20.2144C25.8594 20.1263 26.3016 19.4923 26.2189 18.8005C26.104 17.8422 26.4471 16.9128 27.1448 16.3064L27.1883 16.2659C27.4928 15.9672 27.8675 15.7565 28.2717 15.6557C29.6272 15.3175 30.9644 16.2384 31.2999 17.6869C31.4908 18.5119 31.3197 19.3605 30.8203 20.0293L30.7746 20.0978C30.5889 20.3925 30.3287 20.7213 30.0423 21.0825C29.1615 22.1936 28.079 23.5582 28.0915 25.4009C27.2141 25.7651 26.4446 26.3059 25.8513 26.9779L14.1321 40.2506C12.692 41.8815 12.8057 43.0893 13.1545 43.8153C13.5029 44.5413 14.3557 45.3453 16.4394 45.0519L49.7805 40.3576C51.8806 40.0619 52.4599 39.068 52.5753 38.2862C52.6913 37.5048 52.4311 36.345 50.5356 35.2594ZM49.422 37.8016L16.4409 42.4452C15.9761 42.5107 15.7289 42.3769 15.7008 42.3385C15.6997 42.3144 15.7294 42.2113 15.8684 42.054L27.5874 28.7802C28.1815 28.1077 29.1047 27.6396 30.1204 27.4966C31.0591 27.3644 31.971 27.5176 32.6879 27.9284L49.4612 37.5317C49.6241 37.6243 49.6755 37.713 49.6897 37.6948C49.6776 37.7147 49.6022 37.7763 49.422 37.8016Z" fill="#F3F3F3"/>
</svg>
